<svg xmlns="http://www.w3.org/2000/svg" xml:space="preserve" style="fill-rule:evenodd;clip-rule:evenodd;stroke-linejoin:round;stroke-miterlimit:2" viewBox="0 0 918 748"><path d="M370.591 23.827c94.483-23.756 189.912-7.82 268.393 37.49 79.998 46.183 142.378 122.889 168.177 219.17a516.432 516.432 0 0 1 1.64 6.375l-5.517 1.928a391.787 391.787 0 0 0-1.748-6.802C776.156 187.26 714.78 111.79 636.074 66.343 557.78 21.14 462.33 5.66 368.094 30.477c.88-2.195 1.71-4.411 2.497-6.65Zm-256.55 436.426c.462 1.855.938 3.704 1.436 5.56 25.381 94.728 86.757 170.198 165.462 215.645 78.663 45.419 174.647 60.835 269.332 35.512a152.364 152.364 0 0 0-2.592 6.686c-94.895 24.218-190.829 8.333-269.65-37.172-79.998-46.184-142.377-122.889-168.17-219.17a447.46 447.46 0 0 1-1.335-5.133l5.516-1.928Z"/><path d="M46.886 185.112c1.638 0 3.024.275 4.158.824 1.134.549 1.998 1.323 2.592 2.322.594.999.891 2.182.891 3.55a8.56 8.56 0 0 1-.365 2.444 6.508 6.508 0 0 1-1.161 2.227c-.531.666-1.242 1.202-2.133 1.607s-1.984.607-3.28.607H44.78v6.291h-3.915v-19.872h6.021Zm.675 9.774c.594 0 1.089-.103 1.485-.31.396-.207.706-.468.931-.783.225-.315.387-.644.486-.986.099-.342.149-.639.149-.891a4.53 4.53 0 0 0-.095-.796 3.221 3.221 0 0 0-.391-1.013c-.198-.342-.5-.63-.905-.864-.405-.234-.949-.351-1.633-.351H44.78v5.994h2.781ZM79.637 185.112h3.915v16.092h9.342v3.78H79.637v-19.872ZM116.304 204.984l8.964-20.655h.216l8.964 20.655h-4.536l-5.724-14.526 2.835-1.944-6.858 16.47h-3.861Zm6.129-7.182h5.967l1.377 3.294h-8.559l1.215-3.294ZM157.585 185.112h13.392v3.78h-4.833v16.092h-3.915v-16.092h-4.644v-3.78Z" style="fill-rule:nonzero" transform="translate(-127.824 -212.509) scale(3.12791)"/><path d="M486.363 366.505h12.246v62.158h-12.246z"/><path d="m244.795 205.794-15.066-13.608 1.161.648.081 12.15h-3.969v-20.655h.162l14.742 13.554-.864-.378-.081-12.393h3.942v20.682h-.108ZM275.145 197.64c0 .63.189 1.233.567 1.809a4.4 4.4 0 0 0 1.498 1.404c.621.36 1.301.54 2.039.54.81 0 1.53-.18 2.16-.54a4.243 4.243 0 0 0 1.498-1.404c.369-.576.554-1.179.554-1.809v-12.528h3.861v12.609c0 1.458-.36 2.75-1.08 3.875-.72 1.125-1.692 2.007-2.916 2.646-1.224.639-2.583.958-4.077.958-1.476 0-2.822-.319-4.037-.958a7.552 7.552 0 0 1-2.902-2.646c-.72-1.125-1.08-2.417-1.08-3.875v-12.609h3.915v12.528ZM313.645 204.984v-20.682h.027l11.043 15.66-1.674-.378 11.016-15.282h.054v20.682h-3.915v-11.853l.243 2.025-6.723 9.558h-.054l-6.912-9.558.675-1.863v11.691h-3.78ZM122.454 240.395c.846 0 1.518.171 2.018.513.5.341.75.85.75 1.527 0 .499-.124.916-.37 1.251-.246.334-.58.584-1.003.75a3.967 3.967 0 0 1-1.45.248l-.253-.86c.668 0 1.262.092 1.78.275.518.184.928.447 1.229.789.302.341.452.751.452 1.229 0 .441-.079.814-.237 1.119a2.021 2.021 0 0 1-.639.739 2.737 2.737 0 0 1-.91.408 4.325 4.325 0 0 1-1.047.126h-2.701v-8.114h2.381Zm.188 3.318c.316 0 .549-.095.7-.286.151-.191.226-.408.226-.651 0-.279-.094-.488-.281-.628-.188-.14-.439-.21-.755-.21h-.86v1.775h.97Zm.055 3.308c.235 0 .448-.031.639-.094a.936.936 0 0 0 .452-.297.784.784 0 0 0 .166-.513c0-.235-.066-.414-.199-.535a1.099 1.099 0 0 0-.512-.253 2.938 2.938 0 0 0-.656-.072h-.915v1.764h1.025ZM131.126 240.395h5.534v1.543h-3.936v1.731h3.484v1.544h-3.484v1.753h4.091v1.543h-5.689v-8.114ZM142.446 248.509l3.661-8.434h.088l3.66 8.434h-1.852l-2.337-5.931 1.157-.794-2.8 6.725h-1.577Zm2.503-2.932h2.437l.562 1.345h-3.495l.496-1.345ZM157.347 245.511c0 .257.077.503.231.738.155.235.359.426.612.573.254.147.531.221.833.221a1.75 1.75 0 0 0 1.494-.794c.15-.235.226-.481.226-.738v-5.116h1.576v5.149c0 .595-.147 1.122-.441 1.582a3.076 3.076 0 0 1-1.191 1.08 3.536 3.536 0 0 1-1.664.392 3.49 3.49 0 0 1-1.649-.392 3.087 3.087 0 0 1-1.185-1.08c-.294-.46-.441-.987-.441-1.582v-5.149h1.599v5.116ZM167.738 240.395h5.468v1.543h-1.973v6.571h-1.599v-6.571h-1.896v-1.543ZM181.47 245.985l-2.988-5.59h1.974l2.094 4.211-.474.034 2.062-4.245h1.973l-3.042 5.59v2.524h-1.599v-2.524ZM203.74 242.357a6.186 6.186 0 0 0-.943-.419 2.765 2.765 0 0 0-.898-.165c-.346 0-.617.07-.816.21-.198.139-.298.349-.298.628 0 .191.076.362.226.513.151.15.346.284.585.402.239.118.487.224.744.32.235.088.468.193.7.314.232.121.439.272.623.452s.331.404.441.672c.11.269.165.598.165.987 0 .412-.106.794-.319 1.147a2.335 2.335 0 0 1-.938.854c-.411.217-.918.326-1.521.326a4.95 4.95 0 0 1-1.885-.381 4.788 4.788 0 0 1-.893-.49l.705-1.246a3.948 3.948 0 0 0 1.301.617c.228.059.438.088.629.088s.384-.027.578-.082c.195-.056.357-.149.486-.282.128-.132.193-.316.193-.551a.692.692 0 0 0-.16-.441 1.68 1.68 0 0 0-.43-.364 3.545 3.545 0 0 0-.59-.286c-.25-.096-.507-.206-.772-.331a3.927 3.927 0 0 1-.744-.458 2.074 2.074 0 0 1-.562-.672c-.144-.268-.215-.597-.215-.987 0-.47.104-.878.314-1.224a2.23 2.23 0 0 1 .887-.821 3.093 3.093 0 0 1 1.323-.336c.655 0 1.186.077 1.593.231.408.155.774.338 1.097.552l-.606 1.223ZM209.302 248.509l3.661-8.434h.088l3.66 8.434h-1.852l-2.337-5.931 1.157-.794-2.8 6.725h-1.577Zm2.503-2.932h2.437l.562 1.345h-3.495l.496-1.345ZM222.77 240.395h1.598v6.571h3.815v1.543h-5.413v-8.114ZM233.525 244.463c0-.558.106-1.088.319-1.587a4.284 4.284 0 0 1 2.205-2.239c.5-.22 1.037-.33 1.61-.33.566 0 1.099.11 1.599.33a4.357 4.357 0 0 1 2.232 2.239 3.94 3.94 0 0 1 .325 1.587 4 4 0 0 1-.325 1.61 4.12 4.12 0 0 1-.904 1.317 4.274 4.274 0 0 1-1.328.888c-.5.213-1.033.32-1.599.32-.573 0-1.11-.107-1.61-.32a4.135 4.135 0 0 1-1.317-.888 4.14 4.14 0 0 1-.888-1.317 4.066 4.066 0 0 1-.319-1.61Zm1.653 0a2.604 2.604 0 0 0 .734 1.836c.231.239.499.424.804.557.305.132.638.198.998.198a2.34 2.34 0 0 0 1.742-.755 2.69 2.69 0 0 0 .706-1.836 2.706 2.706 0 0 0-.722-1.858 2.395 2.395 0 0 0-1.77-.755 2.4 2.4 0 0 0-.981.199 2.447 2.447 0 0 0-.794.556 2.555 2.555 0 0 0-.529.833 2.763 2.763 0 0 0-.188 1.025ZM254.858 248.84l-6.152-5.557.474.265.033 4.961h-1.62v-8.434h.066l6.019 5.535-.352-.155-.033-5.06h1.609v8.445h-.044ZM179.819 140.629c.294.036.532.174.715.412a.917.917 0 0 1 .193.77c-.055.275-.211.504-.468.687-5.683 4.07-10.871 7.92-15.564 11.55.477 1.503.532 3.153.165 4.95-.587 2.97-1.659 5.866-3.217 8.689-1.559 2.824-3.337 5.298-5.335 7.425a47.95 47.95 0 0 1-6.325 5.665c-2.218 1.65-4.326 2.915-6.325 3.795-1.998.88-3.749 1.375-5.252 1.485-.22.036-.421.055-.605.055-1.76 0-2.878-.66-3.355-1.98-.843-2.31 1.119-6.105 5.885-11.385 4.767-5.28 12.026-11.733 21.779-19.359-1.1-2.017-3.263-3.877-6.49-5.582-3.226-1.705-8.323-3.969-15.289-6.792a245.193 245.193 0 0 1-4.4-1.815c-2.64-1.1-4.473-2.585-5.499-4.455-1.027-1.87-1.155-4.015-.385-6.435.953-3.08 3.263-6.425 6.929-10.037a69.67 69.67 0 0 1 12.017-9.487c4.345-2.713 8.726-4.876 13.145-6.49 4.418-1.613 7.837-2.145 10.257-1.595.55.11 1.054.285 1.512.523.458.238.926.596 1.403 1.072.476.477.815 1.128 1.017 1.953.202.825.229 1.805.082 2.942-.036.183-.11.348-.22.495a.992.992 0 0 1-.44.33.947.947 0 0 1-.549.055 1.032 1.032 0 0 1-.715-.412 1.047 1.047 0 0 1-.22-.798c.22-1.356.1-2.328-.358-2.915-.458-.586-1.109-.971-1.952-1.155-1.357-.33-3.19-.22-5.5.33s-4.886 1.476-7.727 2.778c-2.842 1.301-5.729 2.905-8.662 4.812-4.73 2.97-8.708 6.086-11.935 9.35-3.226 3.263-5.243 6.214-6.05 8.854-1.209 3.777.349 6.563 4.675 8.36.99.403 2.457.99 4.4 1.76 2.42.99 4.217 1.732 5.39 2.227 1.173.495 2.713 1.155 4.62 1.98 1.906.825 3.373 1.531 4.399 2.117a83.19 83.19 0 0 1 3.355 2.035c1.21.77 2.2 1.531 2.97 2.283.77.751 1.412 1.549 1.925 2.392 4.62-3.593 9.698-7.351 15.234-11.274.257-.184.514-.239.77-.165Zm-16.994 17.929c.22-1.1.238-2.127.055-3.08-7.81 6.123-14.006 11.513-18.589 16.169-2.677 2.75-4.73 5.197-6.16 7.342-1.43 2.145-1.998 3.621-1.705 4.428.147.44.752.623 1.815.55 1.247-.11 2.778-.569 4.592-1.375 1.815-.807 3.759-1.98 5.83-3.52a47.997 47.997 0 0 0 5.94-5.252c1.888-1.962 3.584-4.29 5.087-6.985 1.503-2.695 2.548-5.454 3.135-8.277Z" style="fill-rule:nonzero" transform="translate(-127.824 -212.509) scale(3.12791)"/><path d="M201.598 141.344a.994.994 0 0 1 .825.027c.256.128.43.33.522.605.092.275.083.541-.027.797-3.924 8.103-7.425 12.155-10.505 12.155a3.67 3.67 0 0 1-.605-.055c-2.456-.477-3.978-3.777-4.565-9.9-1.796 2.42-3.391 4.4-4.784 5.94-1.247 1.32-2.31 1.778-3.19 1.375-.88-.33-1.302-1.283-1.265-2.86 0-1.32.293-2.896.88-4.73.586-1.833 1.448-3.611 2.585-5.334 1.136-1.724 2.365-2.805 3.684-3.245 1.944-.697 3.74-.055 5.39 1.925.184.22.266.476.248.77a.975.975 0 0 1-.358.715c-.22.183-.476.265-.77.247a.97.97 0 0 1-.715-.357c-1.283-1.54-2.585-1.834-3.905-.88-1.503 1.063-2.759 2.979-3.767 5.747s-1.402 4.739-1.182 5.912c.22-.183.476-.422.77-.715 1.466-1.576 3.263-3.831 5.389-6.765.477-.659.807-1.118.99-1.374.294-.367.679-.486 1.155-.358.477.128.734.449.77.963.074 1.796.22 3.391.44 4.784.22 1.394.44 2.448.66 3.163.22.715.477 1.31.77 1.787.293.477.523.779.688.908a.839.839 0 0 0 .522.192c.513.11 1.164-.137 1.953-.742.788-.605 1.796-1.779 3.024-3.52 1.229-1.742 2.484-3.951 3.768-6.627.146-.294.348-.477.605-.55Z" style="fill-rule:nonzero" transform="translate(-127.824 -212.509) scale(3.12791)"/><path d="M216.941 102.075c.77 1.137.395 3.823-1.127 8.057-1.522 4.235-3.987 9.066-7.397 14.492l-.11.11a785.95 785.95 0 0 0-6.627 28.901c-2.109 10.028-3.456 17.169-4.043 21.422h.11c.294.11.504.293.633.55a.994.994 0 0 1 .027.825c-.22.623-.394 1.091-.522 1.402a3.286 3.286 0 0 1-.578.908c-.256.293-.531.44-.825.44-.11 0-.238-.019-.385-.055-.513-.184-.788-.688-.825-1.513-.036-.825.22-2.85.77-6.077.66-3.96 1.65-9.129 2.97-15.509 3.043-14.519 6.068-27.462 9.075-38.828.256-.954.531-1.953.825-2.998.293-1.045.715-2.355 1.265-3.932a53.368 53.368 0 0 1 1.622-4.152 18.808 18.808 0 0 1 1.788-3.19c.66-.935 1.283-1.439 1.869-1.513.624-.11 1.119.11 1.485.66Zm-6.709 15.29c2.933-5.537 4.583-9.882 4.949-13.035-1.613 2.42-3.263 6.765-4.949 13.035ZM229.205 141.399c.294-.037.559.036.798.22.238.183.375.421.412.714a.965.965 0 0 1-.22.77c-1.503 1.944-3.3 3.465-5.39 4.565-2.09 1.1-4.051 1.449-5.884 1.045-.514 1.247-1.229 2.228-2.145 2.943-.917.715-1.87 1.072-2.86 1.072h-.055a4.154 4.154 0 0 1-2.612-1.017c-.752-.642-1.275-1.531-1.568-2.668-.477-1.796-.394-3.51.248-5.142.641-1.632 1.567-2.832 2.777-3.602.257-.184.55-.22.88-.11.33-.807.797-1.43 1.402-1.87.605-.44 1.238-.605 1.898-.495.366.073.706.229 1.017.467.312.239.624.614.935 1.128.312.513.541 1.301.688 2.365.146 1.063.183 2.328.11 3.794-.037.367-.092.734-.165 1.1 1.393.294 2.942-.055 4.647-1.045a14.89 14.89 0 0 0 4.372-3.849c.184-.22.422-.349.715-.385Zm-15.289 9.184c.513 0 1.054-.238 1.622-.715.569-.476 1.036-1.118 1.403-1.925-2.383-1.32-3.63-3.116-3.74-5.39-.733.697-1.238 1.632-1.513 2.805-.274 1.174-.265 2.2.028 3.08.403 1.43 1.137 2.145 2.2 2.145Zm3.575-5.115c.073-.88.082-1.64.027-2.282a17.49 17.49 0 0 0-.192-1.567 4.706 4.706 0 0 0-.275-.99c-.11-.257-.211-.44-.303-.55-.091-.11-.156-.165-.192-.165h-.055c-.147 0-.33.119-.55.357-.22.238-.385.559-.495.963-.22.77-.183 1.558.11 2.364.293.807.935 1.54 1.925 2.2v-.33Z" style="fill-rule:nonzero" transform="translate(-127.824 -212.509) scale(3.12791)"/><path d="M249.939 141.234c.293-.074.568-.037.825.11.256.146.421.357.495.632.073.275.036.541-.11.797-1.247 2.2-2.329 3.942-3.245 5.225-.917 1.284-1.852 2.292-2.805 3.025-.953.733-1.888 1.045-2.805.935-1.833-.22-3.282-2.2-4.345-5.94-.77-2.53-1.43-3.794-1.98-3.794-.11-.037-.266.009-.467.137-.202.128-.523.458-.963.99-.44.532-.925 1.256-1.457 2.172-.532.917-1.228 2.274-2.09 4.07-.862 1.797-1.787 3.923-2.777 6.38-.184.44-.514.66-.99.66a.48.48 0 0 1-.22-.055c-.624-.147-.899-.532-.825-1.155.366-3.007 1.741-8.598 4.125-16.774.256-.844.44-1.485.55-1.925a1.112 1.112 0 0 1 1.347-.715 1 1 0 0 1 .632.495.928.928 0 0 1 .055.825l-.55 1.925c-.806 2.823-1.429 5.023-1.869 6.599 1.173-2.2 2.199-3.721 3.079-4.564.88-.844 1.724-1.247 2.53-1.21.954.036 1.714.531 2.283 1.485.568.953 1.109 2.254 1.622 3.904.807 2.824 1.668 4.29 2.585 4.4.44.073.981-.174 1.622-.742.642-.569 1.33-1.394 2.063-2.475a76.573 76.573 0 0 0 1.677-2.558c.385-.623.834-1.411 1.348-2.364.146-.257.366-.422.66-.495ZM153.753 215.333c.644 0 1.218.081 1.722.245.504.163.926.396 1.266.699.341.304.6.667.777 1.092.177.424.266.903.266 1.434 0 .42-.063.84-.189 1.26-.126.42-.331.802-.616 1.148-.284.345-.66.622-1.126.832-.467.21-1.045.315-1.736.315h-1.455v3.275h-2.029v-10.3h3.12Zm.35 5.066c.308 0 .565-.051.77-.154a1.32 1.32 0 0 0 .483-.392 1.705 1.705 0 0 0 .329-.98c0-.112-.017-.254-.049-.426a1.688 1.688 0 0 0-.203-.525 1.237 1.237 0 0 0-.469-.448c-.21-.121-.492-.182-.847-.182h-1.455v3.107h1.441Zm1.904 1.259 2.547 3.975h-2.365l-2.603-3.919 2.421-.056ZM171.431 215.333h7.026v1.959h-4.996v2.197h4.422v1.959h-4.422v2.226h5.192v1.959h-7.222v-10.3ZM201.174 226.053l-7.809-7.054.602.336.042 6.298h-2.058v-10.706h.084l7.641 7.025-.447-.196-.042-6.423h2.043v10.72h-.056ZM214.456 220.497c0-.709.136-1.381.406-2.015a5.425 5.425 0 0 1 1.127-1.687 5.317 5.317 0 0 1 1.672-1.154 5.008 5.008 0 0 1 2.044-.42c.718 0 1.394.14 2.029.42a5.495 5.495 0 0 1 2.834 2.841 5.01 5.01 0 0 1 .413 2.015c0 .728-.138 1.409-.413 2.043a5.224 5.224 0 0 1-1.148 1.672 5.415 5.415 0 0 1-1.686 1.127 5.113 5.113 0 0 1-2.029.406 5.15 5.15 0 0 1-2.044-.406 5.24 5.24 0 0 1-1.672-1.127 5.246 5.246 0 0 1-1.127-1.672 5.16 5.16 0 0 1-.406-2.043Zm2.1 0a3.313 3.313 0 0 0 .93 2.33 3.17 3.17 0 0 0 1.022.707c.387.168.809.252 1.267.252a2.98 2.98 0 0 0 2.211-.959 3.386 3.386 0 0 0 .895-2.33c0-.467-.081-.901-.244-1.302a3.423 3.423 0 0 0-.672-1.056 3.018 3.018 0 0 0-2.246-.959 3.066 3.066 0 0 0-2.254.959 3.23 3.23 0 0 0-.671 1.056 3.5 3.5 0 0 0-.238 1.302Z" style="fill-rule:nonzero" transform="translate(-127.824 -212.509) scale(3.12791)"/><path fill="none" d="M75.561 75.979h223.877V315.1H75.561z" style="fill-opacity:0" transform="translate(-127.824 -237.657) scale(3.12791)"/></svg>