<?xml version="1.0" encoding="UTF-8" standalone="no"?>
<!DOCTYPE svg PUBLIC "-//W3C//DTD SVG 1.1//EN" "http://www.w3.org/Graphics/SVG/1.1/DTD/svg11.dtd">
<svg width="100%" height="100%" viewBox="0 0 918 748" version="1.1" xmlns="http://www.w3.org/2000/svg" xmlns:xlink="http://www.w3.org/1999/xlink" xml:space="preserve" xmlns:serif="http://www.serif.com/" style="fill-rule:evenodd;clip-rule:evenodd;stroke-linejoin:round;stroke-miterlimit:2;">
    <g transform="matrix(3.12791,0,0,3.12791,-1230.45,-1315.1)">
        <g transform="matrix(0.230847,0,0,-0.230847,428.073,655.447)">
            <path d="M362.94,985.02C493.79,1017.92 625.95,995.85 734.64,933.1C845.43,869.14 931.82,762.91 967.55,629.57C968.33,626.63 969.08,623.68 969.82,620.74L962.18,618.07C961.4,621.21 960.6,624.35 959.76,627.49C924.61,758.68 839.61,863.2 730.61,926.14C622.18,988.74 489.99,1010.18 359.48,975.81C360.7,978.85 361.85,981.92 362.94,985.02ZM7.64,380.61C8.28,378.04 8.94,375.48 9.63,372.91C44.78,241.72 129.78,137.2 238.78,74.26C347.72,11.36 480.65,-9.99 611.78,25.08C610.51,22.03 609.32,18.94 608.19,15.82C476.77,-17.72 343.91,4.28 234.75,67.3C123.96,131.26 37.57,237.49 1.85,370.83C1.22,373.2 0.6,375.57 0,377.94L7.64,380.61Z" style="fill:white;"/>
        </g>
        <g transform="matrix(1,0,0,1,352.512,352.501)">
            <path d="M46.886,185.112C48.524,185.112 49.91,185.387 51.044,185.936C52.178,186.485 53.042,187.259 53.636,188.258C54.23,189.257 54.527,190.44 54.527,191.808C54.527,192.618 54.405,193.433 54.162,194.252C53.919,195.071 53.532,195.813 53.001,196.479C52.47,197.145 51.759,197.681 50.868,198.086C49.977,198.491 48.884,198.693 47.588,198.693L44.78,198.693L44.78,204.984L40.865,204.984L40.865,185.112L46.886,185.112ZM47.561,194.886C48.155,194.886 48.65,194.783 49.046,194.576C49.442,194.369 49.752,194.108 49.977,193.793C50.202,193.478 50.364,193.149 50.463,192.807C50.562,192.465 50.612,192.168 50.612,191.916C50.612,191.718 50.58,191.453 50.517,191.12C50.454,190.787 50.324,190.449 50.126,190.107C49.928,189.765 49.626,189.477 49.221,189.243C48.816,189.009 48.272,188.892 47.588,188.892L44.78,188.892L44.78,194.886L47.561,194.886Z" style="fill:white;fill-rule:nonzero;"/>
            <path d="M79.637,185.112L83.552,185.112L83.552,201.204L92.894,201.204L92.894,204.984L79.637,204.984L79.637,185.112Z" style="fill:white;fill-rule:nonzero;"/>
            <path d="M116.304,204.984L125.268,184.329L125.484,184.329L134.448,204.984L129.912,204.984L124.188,190.458L127.023,188.514L120.165,204.984L116.304,204.984ZM122.433,197.802L128.4,197.802L129.777,201.096L121.218,201.096L122.433,197.802Z" style="fill:white;fill-rule:nonzero;"/>
            <path d="M157.585,185.112L170.977,185.112L170.977,188.892L166.144,188.892L166.144,204.984L162.229,204.984L162.229,188.892L157.585,188.892L157.585,185.112Z" style="fill:white;fill-rule:nonzero;"/>
            <rect x="196.357" y="185.112" width="3.915" height="19.872" style="fill:white;"/>
            <path d="M244.795,205.794L229.729,192.186L230.89,192.834L230.971,204.984L227.002,204.984L227.002,184.329L227.164,184.329L241.906,197.883L241.042,197.505L240.961,185.112L244.903,185.112L244.903,205.794L244.795,205.794Z" style="fill:white;fill-rule:nonzero;"/>
            <path d="M275.145,197.64C275.145,198.27 275.334,198.873 275.712,199.449C276.09,200.025 276.589,200.493 277.21,200.853C277.831,201.213 278.511,201.393 279.249,201.393C280.059,201.393 280.779,201.213 281.409,200.853C282.039,200.493 282.538,200.025 282.907,199.449C283.276,198.873 283.461,198.27 283.461,197.64L283.461,185.112L287.322,185.112L287.322,197.721C287.322,199.179 286.962,200.471 286.242,201.596C285.522,202.721 284.55,203.603 283.326,204.242C282.102,204.881 280.743,205.2 279.249,205.2C277.773,205.2 276.427,204.881 275.212,204.242C273.997,203.603 273.03,202.721 272.31,201.596C271.59,200.471 271.23,199.179 271.23,197.721L271.23,185.112L275.145,185.112L275.145,197.64Z" style="fill:white;fill-rule:nonzero;"/>
            <path d="M313.645,204.984L313.645,184.302L313.672,184.302L324.715,199.962L323.041,199.584L334.057,184.302L334.111,184.302L334.111,204.984L330.196,204.984L330.196,193.131L330.439,195.156L323.716,204.714L323.662,204.714L316.75,195.156L317.425,193.293L317.425,204.984L313.645,204.984Z" style="fill:white;fill-rule:nonzero;"/>
            <path d="M122.454,240.395C123.3,240.395 123.972,240.566 124.472,240.908C124.972,241.249 125.222,241.758 125.222,242.435C125.222,242.934 125.098,243.351 124.852,243.686C124.606,244.02 124.272,244.27 123.849,244.436C123.426,244.601 122.943,244.684 122.399,244.684L122.146,243.824C122.814,243.824 123.408,243.916 123.926,244.099C124.444,244.283 124.854,244.546 125.155,244.888C125.457,245.229 125.607,245.639 125.607,246.117C125.607,246.558 125.528,246.931 125.37,247.236C125.212,247.541 124.999,247.787 124.731,247.975C124.463,248.162 124.16,248.298 123.821,248.383C123.483,248.467 123.134,248.509 122.774,248.509L120.073,248.509L120.073,240.395L122.454,240.395ZM122.642,243.713C122.958,243.713 123.191,243.618 123.342,243.427C123.493,243.236 123.568,243.019 123.568,242.776C123.568,242.497 123.474,242.288 123.287,242.148C123.099,242.008 122.848,241.938 122.532,241.938L121.672,241.938L121.672,243.713L122.642,243.713ZM122.697,247.021C122.932,247.021 123.145,246.99 123.336,246.927C123.527,246.865 123.678,246.766 123.788,246.63C123.899,246.494 123.954,246.323 123.954,246.117C123.954,245.882 123.888,245.703 123.755,245.582C123.623,245.461 123.452,245.376 123.243,245.329C123.033,245.281 122.814,245.257 122.587,245.257L121.672,245.257L121.672,247.021L122.697,247.021Z" style="fill:white;fill-rule:nonzero;"/>
            <path d="M131.126,240.395L136.66,240.395L136.66,241.938L132.724,241.938L132.724,243.669L136.208,243.669L136.208,245.213L132.724,245.213L132.724,246.966L136.815,246.966L136.815,248.509L131.126,248.509L131.126,240.395Z" style="fill:white;fill-rule:nonzero;"/>
            <path d="M142.446,248.509L146.107,240.075L146.195,240.075L149.855,248.509L148.003,248.509L145.666,242.578L146.823,241.784L144.023,248.509L142.446,248.509ZM144.949,245.577L147.386,245.577L147.948,246.922L144.453,246.922L144.949,245.577Z" style="fill:white;fill-rule:nonzero;"/>
            <path d="M157.347,245.511C157.347,245.768 157.424,246.014 157.578,246.249C157.733,246.484 157.937,246.675 158.19,246.822C158.444,246.969 158.721,247.043 159.023,247.043C159.353,247.043 159.647,246.969 159.905,246.822C160.162,246.675 160.366,246.484 160.517,246.249C160.667,246.014 160.743,245.768 160.743,245.511L160.743,240.395L162.319,240.395L162.319,245.544C162.319,246.139 162.172,246.666 161.878,247.126C161.584,247.585 161.187,247.945 160.687,248.206C160.188,248.467 159.633,248.598 159.023,248.598C158.42,248.598 157.871,248.467 157.374,248.206C156.878,247.945 156.483,247.585 156.189,247.126C155.895,246.666 155.748,246.139 155.748,245.544L155.748,240.395L157.347,240.395L157.347,245.511Z" style="fill:white;fill-rule:nonzero;"/>
            <path d="M167.738,240.395L173.206,240.395L173.206,241.938L171.233,241.938L171.233,248.509L169.634,248.509L169.634,241.938L167.738,241.938L167.738,240.395Z" style="fill:white;fill-rule:nonzero;"/>
            <path d="M181.47,245.985L178.482,240.395L180.456,240.395L182.55,244.606L182.076,244.64L184.138,240.395L186.111,240.395L183.069,245.985L183.069,248.509L181.47,248.509L181.47,245.985Z" style="fill:white;fill-rule:nonzero;"/>
            <path d="M203.74,242.357C203.431,242.188 203.117,242.049 202.797,241.938C202.478,241.828 202.178,241.773 201.899,241.773C201.553,241.773 201.282,241.843 201.083,241.983C200.885,242.122 200.785,242.332 200.785,242.611C200.785,242.802 200.861,242.973 201.011,243.124C201.162,243.274 201.357,243.408 201.596,243.526C201.835,243.644 202.083,243.75 202.34,243.846C202.575,243.934 202.808,244.039 203.04,244.16C203.272,244.281 203.479,244.432 203.663,244.612C203.847,244.792 203.994,245.016 204.104,245.284C204.214,245.553 204.269,245.882 204.269,246.271C204.269,246.683 204.163,247.065 203.95,247.418C203.736,247.771 203.424,248.055 203.012,248.272C202.601,248.489 202.094,248.598 201.491,248.598C201.182,248.598 200.868,248.566 200.548,248.504C200.229,248.441 199.914,248.346 199.606,248.217C199.297,248.089 198.999,247.925 198.713,247.727L199.418,246.481C199.609,246.62 199.817,246.743 200.041,246.85C200.265,246.957 200.491,247.039 200.719,247.098C200.947,247.157 201.157,247.186 201.348,247.186C201.539,247.186 201.732,247.159 201.926,247.104C202.121,247.048 202.283,246.955 202.412,246.822C202.54,246.69 202.605,246.506 202.605,246.271C202.605,246.11 202.551,245.963 202.445,245.83C202.338,245.698 202.195,245.577 202.015,245.466C201.835,245.356 201.638,245.261 201.425,245.18C201.175,245.084 200.918,244.974 200.653,244.849C200.389,244.724 200.14,244.572 199.909,244.391C199.677,244.211 199.49,243.987 199.347,243.719C199.203,243.451 199.132,243.122 199.132,242.732C199.132,242.262 199.236,241.854 199.446,241.508C199.655,241.163 199.951,240.889 200.333,240.687C200.716,240.485 201.157,240.373 201.656,240.351C202.311,240.351 202.842,240.428 203.249,240.582C203.657,240.737 204.023,240.92 204.346,241.134L203.74,242.357Z" style="fill:white;fill-rule:nonzero;"/>
            <path d="M209.302,248.509L212.963,240.075L213.051,240.075L216.711,248.509L214.859,248.509L212.522,242.578L213.679,241.784L210.879,248.509L209.302,248.509ZM211.805,245.577L214.242,245.577L214.804,246.922L211.309,246.922L211.805,245.577Z" style="fill:white;fill-rule:nonzero;"/>
            <path d="M222.77,240.395L224.368,240.395L224.368,246.966L228.183,246.966L228.183,248.509L222.77,248.509L222.77,240.395Z" style="fill:white;fill-rule:nonzero;"/>
            <path d="M233.525,244.463C233.525,243.905 233.631,243.375 233.844,242.876C234.058,242.376 234.353,241.933 234.732,241.547C235.11,241.161 235.55,240.858 236.049,240.637C236.549,240.417 237.086,240.307 237.659,240.307C238.225,240.307 238.758,240.417 239.258,240.637C239.757,240.858 240.2,241.161 240.586,241.547C240.972,241.933 241.273,242.376 241.49,242.876C241.707,243.375 241.815,243.905 241.815,244.463C241.815,245.036 241.707,245.573 241.49,246.073C241.273,246.573 240.972,247.012 240.586,247.39C240.2,247.769 239.757,248.065 239.258,248.278C238.758,248.491 238.225,248.598 237.659,248.598C237.086,248.598 236.549,248.491 236.049,248.278C235.55,248.065 235.11,247.769 234.732,247.39C234.353,247.012 234.058,246.573 233.844,246.073C233.631,245.573 233.525,245.036 233.525,244.463ZM235.178,244.463C235.178,244.823 235.243,245.16 235.371,245.472C235.5,245.784 235.68,246.06 235.912,246.299C236.143,246.538 236.411,246.723 236.716,246.856C237.021,246.988 237.354,247.054 237.714,247.054C238.06,247.054 238.381,246.988 238.679,246.856C238.977,246.723 239.236,246.538 239.456,246.299C239.677,246.06 239.849,245.784 239.974,245.472C240.099,245.16 240.162,244.823 240.162,244.463C240.162,244.096 240.097,243.754 239.969,243.438C239.84,243.122 239.664,242.844 239.44,242.605C239.215,242.367 238.953,242.181 238.651,242.049C238.35,241.916 238.023,241.85 237.67,241.85C237.317,241.85 236.99,241.916 236.689,242.049C236.387,242.181 236.123,242.367 235.895,242.605C235.667,242.844 235.491,243.122 235.366,243.438C235.241,243.754 235.178,244.096 235.178,244.463Z" style="fill:white;fill-rule:nonzero;"/>
            <path d="M254.858,248.84L248.706,243.283L249.18,243.548L249.213,248.509L247.593,248.509L247.593,240.075L247.659,240.075L253.678,245.61L253.326,245.455L253.293,240.395L254.902,240.395L254.902,248.84L254.858,248.84Z" style="fill:white;fill-rule:nonzero;"/>
        </g>
        <g transform="matrix(1,0,0,1,352.512,352.501)">
            <path d="M179.819,140.629C180.113,140.665 180.351,140.803 180.534,141.041C180.718,141.279 180.782,141.536 180.727,141.811C180.672,142.086 180.516,142.315 180.259,142.498C174.576,146.568 169.388,150.418 164.695,154.048C165.172,155.551 165.227,157.201 164.86,158.998C164.273,161.968 163.201,164.864 161.643,167.687C160.084,170.511 158.306,172.985 156.308,175.112C154.31,177.239 152.201,179.127 149.983,180.777C147.765,182.427 145.657,183.692 143.658,184.572C141.66,185.452 139.909,185.947 138.406,186.057C138.186,186.093 137.985,186.112 137.801,186.112C136.041,186.112 134.923,185.452 134.446,184.132C133.603,181.822 135.565,178.027 140.331,172.747C145.098,167.467 152.357,161.014 162.11,153.388C161.01,151.371 158.847,149.511 155.62,147.806C152.394,146.101 147.297,143.837 140.331,141.014C138.425,140.244 136.958,139.639 135.931,139.199C133.291,138.099 131.458,136.614 130.432,134.744C129.405,132.874 129.277,130.729 130.047,128.309C131,125.229 133.31,121.884 136.976,118.272C140.643,114.661 144.648,111.498 148.993,108.785C153.338,106.072 157.719,103.909 162.138,102.295C166.556,100.682 169.975,100.15 172.395,100.7C172.945,100.81 173.449,100.985 173.907,101.223C174.365,101.461 174.833,101.819 175.31,102.295C175.786,102.772 176.125,103.423 176.327,104.248C176.529,105.073 176.556,106.053 176.409,107.19C176.373,107.373 176.299,107.538 176.189,107.685C176.079,107.832 175.933,107.942 175.749,108.015C175.566,108.088 175.383,108.107 175.2,108.07C174.906,108.033 174.668,107.896 174.485,107.658C174.301,107.419 174.228,107.153 174.265,106.86C174.485,105.504 174.365,104.532 173.907,103.945C173.449,103.359 172.798,102.974 171.955,102.79C170.598,102.46 168.765,102.57 166.455,103.12C164.145,103.67 161.569,104.596 158.728,105.898C155.886,107.199 152.999,108.803 150.066,110.71C145.336,113.68 141.358,116.796 138.131,120.06C134.905,123.323 132.888,126.274 132.081,128.914C130.872,132.691 132.43,135.477 136.756,137.274C137.746,137.677 139.213,138.264 141.156,139.034C143.576,140.024 145.373,140.766 146.546,141.261C147.719,141.756 149.259,142.416 151.166,143.241C153.072,144.066 154.539,144.772 155.565,145.358C156.592,145.945 157.71,146.623 158.92,147.393C160.13,148.163 161.12,148.924 161.89,149.676C162.66,150.427 163.302,151.225 163.815,152.068C168.435,148.475 173.513,144.717 179.049,140.794C179.306,140.61 179.563,140.555 179.819,140.629ZM162.825,158.558C163.045,157.458 163.063,156.431 162.88,155.478C155.07,161.601 148.874,166.991 144.291,171.647C141.614,174.397 139.561,176.844 138.131,178.989C136.701,181.134 136.133,182.61 136.426,183.417C136.573,183.857 137.178,184.04 138.241,183.967C139.488,183.857 141.019,183.398 142.833,182.592C144.648,181.785 146.592,180.612 148.663,179.072C150.735,177.532 152.715,175.781 154.603,173.82C156.491,171.858 158.187,169.53 159.69,166.835C161.193,164.14 162.238,161.381 162.825,158.558Z" style="fill:white;fill-rule:nonzero;"/>
            <path d="M201.598,141.344C201.891,141.234 202.166,141.243 202.423,141.371C202.679,141.499 202.853,141.701 202.945,141.976C203.037,142.251 203.028,142.517 202.918,142.773C198.994,150.876 195.493,154.928 192.413,154.928C192.23,154.928 192.028,154.91 191.808,154.873C189.352,154.396 187.83,151.096 187.243,144.973C185.447,147.393 183.852,149.373 182.459,150.913C181.212,152.233 180.149,152.691 179.269,152.288C178.389,151.958 177.967,151.005 178.004,149.428C178.004,148.108 178.297,146.532 178.884,144.698C179.47,142.865 180.332,141.087 181.469,139.364C182.605,137.64 183.834,136.559 185.153,136.119C187.097,135.422 188.893,136.064 190.543,138.044C190.727,138.264 190.809,138.52 190.791,138.814C190.772,139.107 190.653,139.345 190.433,139.529C190.213,139.712 189.957,139.794 189.663,139.776C189.37,139.758 189.132,139.639 188.948,139.419C187.665,137.879 186.363,137.585 185.043,138.539C183.54,139.602 182.284,141.518 181.276,144.286C180.268,147.054 179.874,149.025 180.094,150.198C180.314,150.015 180.57,149.776 180.864,149.483C182.33,147.907 184.127,145.652 186.253,142.718C186.73,142.059 187.06,141.6 187.243,141.344C187.537,140.977 187.922,140.858 188.398,140.986C188.875,141.114 189.132,141.435 189.168,141.949C189.242,143.745 189.388,145.34 189.608,146.733C189.828,148.127 190.048,149.181 190.268,149.896C190.488,150.611 190.745,151.206 191.038,151.683C191.331,152.16 191.561,152.462 191.726,152.591C191.891,152.719 192.065,152.783 192.248,152.783C192.761,152.893 193.412,152.646 194.201,152.041C194.989,151.436 195.997,150.262 197.225,148.521C198.454,146.779 199.709,144.57 200.993,141.894C201.139,141.6 201.341,141.417 201.598,141.344Z" style="fill:white;fill-rule:nonzero;"/>
            <path d="M216.941,102.075C217.711,103.212 217.336,105.898 215.814,110.132C214.292,114.367 211.827,119.198 208.417,124.624C208.38,124.661 208.343,124.698 208.307,124.734C205.997,133.974 203.788,143.608 201.68,153.635C199.571,163.663 198.224,170.804 197.637,175.057L197.747,175.057C198.041,175.167 198.251,175.35 198.38,175.607C198.508,175.864 198.517,176.139 198.407,176.432C198.187,177.055 198.013,177.523 197.885,177.834C197.756,178.146 197.564,178.449 197.307,178.742C197.051,179.035 196.776,179.182 196.482,179.182C196.372,179.182 196.244,179.163 196.097,179.127C195.584,178.943 195.309,178.439 195.272,177.614C195.236,176.789 195.492,174.764 196.042,171.537C196.702,167.577 197.692,162.408 199.012,156.028C202.055,141.509 205.08,128.566 208.087,117.2C208.343,116.246 208.618,115.247 208.912,114.202C209.205,113.157 209.627,111.847 210.177,110.27C210.727,108.693 211.267,107.309 211.799,106.118C212.331,104.926 212.927,103.863 213.587,102.928C214.247,101.993 214.87,101.489 215.456,101.415C216.08,101.305 216.575,101.525 216.941,102.075ZM210.232,117.365C213.165,111.828 214.815,107.483 215.181,104.33C213.568,106.75 211.918,111.095 210.232,117.365Z" style="fill:white;fill-rule:nonzero;"/>
            <path d="M229.205,141.399C229.499,141.362 229.764,141.435 230.003,141.619C230.241,141.802 230.378,142.04 230.415,142.333C230.452,142.627 230.378,142.883 230.195,143.103C228.692,145.047 226.895,146.568 224.805,147.668C222.715,148.768 220.754,149.117 218.921,148.713C218.407,149.96 217.692,150.941 216.776,151.656C215.859,152.371 214.906,152.728 213.916,152.728L213.861,152.728C212.871,152.691 212,152.352 211.249,151.711C210.497,151.069 209.974,150.18 209.681,149.043C209.204,147.247 209.287,145.533 209.929,143.901C210.57,142.269 211.496,141.069 212.706,140.299C212.963,140.115 213.256,140.079 213.586,140.189C213.916,139.382 214.383,138.759 214.988,138.319C215.593,137.879 216.226,137.714 216.886,137.824C217.252,137.897 217.592,138.053 217.903,138.291C218.215,138.53 218.527,138.905 218.838,139.419C219.15,139.932 219.379,140.72 219.526,141.784C219.672,142.847 219.709,144.112 219.636,145.578C219.599,145.945 219.544,146.312 219.471,146.678C220.864,146.972 222.413,146.623 224.118,145.633C225.823,144.643 227.28,143.36 228.49,141.784C228.674,141.564 228.912,141.435 229.205,141.399ZM213.916,150.583C214.429,150.583 214.97,150.345 215.538,149.868C216.107,149.392 216.574,148.75 216.941,147.943C214.558,146.623 213.311,144.827 213.201,142.553C212.468,143.25 211.963,144.185 211.688,145.358C211.414,146.532 211.423,147.558 211.716,148.438C212.119,149.868 212.853,150.583 213.916,150.583ZM217.491,145.468C217.564,144.588 217.573,143.828 217.518,143.186C217.463,142.544 217.399,142.022 217.326,141.619C217.252,141.215 217.161,140.885 217.051,140.629C216.941,140.372 216.84,140.189 216.748,140.079C216.657,139.969 216.592,139.914 216.556,139.914L216.501,139.914C216.354,139.914 216.171,140.033 215.951,140.271C215.731,140.509 215.566,140.83 215.456,141.234C215.236,142.004 215.273,142.792 215.566,143.598C215.859,144.405 216.501,145.138 217.491,145.798L217.491,145.468Z" style="fill:white;fill-rule:nonzero;"/>
            <path d="M249.939,141.234C250.232,141.16 250.507,141.197 250.764,141.344C251.02,141.49 251.185,141.701 251.259,141.976C251.332,142.251 251.295,142.517 251.149,142.773C249.902,144.973 248.82,146.715 247.904,147.998C246.987,149.282 246.052,150.29 245.099,151.023C244.146,151.756 243.211,152.068 242.294,151.958C240.461,151.738 239.012,149.758 237.949,146.018C237.179,143.488 236.519,142.224 235.969,142.224C235.859,142.187 235.703,142.233 235.502,142.361C235.3,142.489 234.979,142.819 234.539,143.351C234.099,143.883 233.614,144.607 233.082,145.523C232.55,146.44 231.854,147.797 230.992,149.593C230.13,151.39 229.205,153.516 228.215,155.973C228.031,156.413 227.701,156.633 227.225,156.633C227.151,156.633 227.078,156.615 227.005,156.578C226.381,156.431 226.106,156.046 226.18,155.423C226.546,152.416 227.921,146.825 230.305,138.649C230.561,137.805 230.745,137.164 230.855,136.724C230.965,136.43 231.148,136.22 231.404,136.091C231.661,135.963 231.927,135.935 232.202,136.009C232.477,136.082 232.688,136.247 232.834,136.504C232.981,136.76 232.999,137.035 232.889,137.329C232.816,137.585 232.633,138.227 232.339,139.254C231.533,142.077 230.91,144.277 230.47,145.853C231.643,143.653 232.669,142.132 233.549,141.289C234.429,140.445 235.273,140.042 236.079,140.079C237.033,140.115 237.793,140.61 238.362,141.564C238.93,142.517 239.471,143.818 239.984,145.468C240.791,148.292 241.652,149.758 242.569,149.868C243.009,149.941 243.55,149.694 244.191,149.126C244.833,148.557 245.521,147.732 246.254,146.651C246.987,145.569 247.546,144.717 247.931,144.093C248.316,143.47 248.765,142.682 249.279,141.729C249.425,141.472 249.645,141.307 249.939,141.234Z" style="fill:white;fill-rule:nonzero;"/>
            <path d="M153.753,215.333C154.397,215.333 154.971,215.414 155.475,215.578C155.979,215.741 156.401,215.974 156.741,216.277C157.082,216.581 157.341,216.944 157.518,217.369C157.695,217.793 157.784,218.272 157.784,218.803C157.784,219.223 157.721,219.643 157.595,220.063C157.469,220.483 157.264,220.865 156.979,221.211C156.695,221.556 156.319,221.833 155.853,222.043C155.386,222.253 154.808,222.358 154.117,222.358L152.662,222.358L152.662,225.633L150.633,225.633L150.633,215.333L153.753,215.333ZM154.103,220.399C154.411,220.399 154.668,220.348 154.873,220.245C155.078,220.142 155.239,220.012 155.356,219.853C155.473,219.694 155.556,219.529 155.608,219.356C155.659,219.184 155.685,219.023 155.685,218.873C155.685,218.761 155.668,218.619 155.636,218.447C155.603,218.274 155.535,218.099 155.433,217.922C155.33,217.744 155.174,217.595 154.964,217.474C154.754,217.353 154.472,217.292 154.117,217.292L152.662,217.292L152.662,220.399L154.103,220.399ZM156.007,221.658L158.554,225.633L156.189,225.633L153.586,221.714L156.007,221.658Z" style="fill:white;fill-rule:nonzero;"/>
            <path d="M171.431,215.333L178.457,215.333L178.457,217.292L173.461,217.292L173.461,219.489L177.883,219.489L177.883,221.448L173.461,221.448L173.461,223.674L178.653,223.674L178.653,225.633L171.431,225.633L171.431,215.333Z" style="fill:white;fill-rule:nonzero;"/>
            <path d="M201.174,226.053L193.365,218.999L193.967,219.335L194.009,225.633L191.951,225.633L191.951,214.927L192.035,214.927L199.676,221.952L199.229,221.756L199.187,215.333L201.23,215.333L201.23,226.053L201.174,226.053Z" style="fill:white;fill-rule:nonzero;"/>
            <path d="M214.456,220.497C214.456,219.788 214.592,219.116 214.862,218.482C215.133,217.847 215.508,217.285 215.989,216.795C216.469,216.305 217.027,215.92 217.661,215.641C218.296,215.361 218.977,215.221 219.705,215.221C220.423,215.221 221.099,215.361 221.734,215.641C222.368,215.92 222.93,216.305 223.42,216.795C223.91,217.285 224.293,217.847 224.568,218.482C224.843,219.116 224.981,219.788 224.981,220.497C224.981,221.225 224.843,221.906 224.568,222.54C224.293,223.175 223.91,223.732 223.42,224.212C222.93,224.693 222.368,225.069 221.734,225.339C221.099,225.61 220.423,225.745 219.705,225.745C218.977,225.745 218.296,225.61 217.661,225.339C217.027,225.069 216.469,224.693 215.989,224.212C215.508,223.732 215.133,223.175 214.862,222.54C214.592,221.906 214.456,221.225 214.456,220.497ZM216.556,220.497C216.556,220.954 216.637,221.381 216.801,221.777C216.964,222.174 217.192,222.524 217.486,222.827C217.78,223.13 218.121,223.366 218.508,223.534C218.895,223.702 219.317,223.786 219.775,223.786C220.213,223.786 220.621,223.702 220.999,223.534C221.377,223.366 221.706,223.13 221.986,222.827C222.266,222.524 222.485,222.174 222.644,221.777C222.802,221.381 222.881,220.954 222.881,220.497C222.881,220.03 222.8,219.596 222.637,219.195C222.473,218.794 222.249,218.442 221.965,218.139C221.68,217.835 221.347,217.6 220.964,217.432C220.582,217.264 220.166,217.18 219.719,217.18C219.271,217.18 218.856,217.264 218.473,217.432C218.091,217.6 217.755,217.835 217.465,218.139C217.176,218.442 216.952,218.794 216.794,219.195C216.635,219.596 216.556,220.03 216.556,220.497Z" style="fill:white;fill-rule:nonzero;"/>
        </g>
        <g transform="matrix(1,0,0,1,352.512,344.461)">
            <rect x="75.561" y="75.979" width="223.877" height="239.121" style="fill:white;fill-opacity:0;"/>
        </g>
    </g>
</svg>
